<svg xmlns="http://www.w3.org/2000/svg" xmlns:xlink="http://www.w3.org/1999/xlink" width="40" height="40" viewBox="0 0 40 40"><defs><style>.a{fill:url(#a);}.b{fill:#fff;fill-rule:evenodd;}</style><linearGradient id="a" x1="1" y1="1" x2="1" gradientUnits="objectBoundingBox"><stop offset="0" stop-color="#f96958"/><stop offset="1" stop-color="#fea098"/></linearGradient></defs><g transform="translate(0.473 1.067)"><rect class="a" width="40" height="40" transform="translate(-0.473 -1.067)"/><g transform="translate(7.083 7.364)"><path class="b" d="M52.488,50.883v1.606H41.328V50.883ZM30.261,41.244V52.38H28.667V41.244Zm3.189,0V52.38H31.856V41.244Zm3.189,0V52.38H35.045V41.244Zm3.189,0V52.38H38.234V41.244Zm12.66,6.426v1.606H41.328V47.67Zm0-3.213v1.606H41.328V44.457Zm0-3.213V42.85H41.328V41.244ZM39.828,38.3v1.607H28.667V38.3Zm3.094-9.638V39.8H41.328V28.667Zm3.188,0V39.8H44.516V28.667Zm3.189,0V39.8H47.7V28.667Zm3.189,0V39.8H50.893V28.667Zm-12.66,6.426V36.7H28.667V35.093Zm0-3.214v1.606H28.667V31.879Zm0-3.213v1.607H28.667V28.667Z" transform="translate(-28.667 -28.667)"/></g></g></svg>
